<svg width="128" height="128" viewBox="0 0 128 128" xmlns="http://www.w3.org/2000/svg">
  <defs>
    <linearGradient id="g" x1="0%" y1="0%" x2="100%" y2="100%">
      <stop offset="0%" stop-color="#0ea5e9"/>
      <stop offset="50%" stop-color="#7c3aed"/>
      <stop offset="100%" stop-color="#f97316"/>
    </linearGradient>
    <filter id="glow" x="-30%" y="-30%" width="160%" height="160%">
      <feGaussianBlur stdDeviation="4" result="blur"/>
      <feMerge>
        <feMergeNode in="blur"/>
        <feMergeNode in="blur"/>
        <feMergeNode in="SourceGraphic"/>
      </feMerge>
    </filter>
  </defs>
  <rect x="8" y="8" width="112" height="112" rx="24" fill="#0b1022"/>
  <rect x="8" y="8" width="112" height="112" rx="24" fill="url(#g)" opacity="0.2"/>
  <circle cx="64" cy="64" r="32" fill="url(#g)" filter="url(#glow)"/>
  <path d="M70 36c6 6 15 18 14 31-1 13-12 22-22 22s-19-7-20-19c-1-12 6-18 13-22l4-2-10-10 8-3 10 10 3-7z" fill="#fff" opacity="0.9"/>
  <rect x="36" y="88" width="56" height="4" rx="2" fill="#fff" opacity="0.6"/>
</svg>
